<?xml version="1.0" standalone="no"?>
<!DOCTYPE svg PUBLIC "-//W3C//DTD SVG 20010904//EN"
 "http://www.w3.org/TR/2001/REC-SVG-20010904/DTD/svg10.dtd">
<svg version="1.0" xmlns="http://www.w3.org/2000/svg"
 width="600.000000pt" height="600.000000pt" viewBox="0 0 600.000000 600.000000"
 preserveAspectRatio="xMidYMid meet">
<metadata>
Created by potrace 1.11, written by Peter Selinger 2001-2013
</metadata>
<g transform="translate(0.000000,600.000000) scale(0.100000,-0.100000)"
fill="#000000" stroke="none">
<path d="M2770 5683 c-95 -5 -325 -34 -332 -41 -4 -4 23 -23 60 -42 87 -44
250 -204 322 -315 28 -44 55 -80 58 -80 4 1 33 7 65 14 48 12 66 12 115 0 31
-7 60 -13 64 -14 3 0 30 36 58 80 72 111 235 270 324 317 66 34 68 36 40 42
-178 36 -523 54 -774 39z"/>
<path d="M1952 5500 c-104 -52 -212 -131 -212 -155 0 -7 24 -27 53 -43 65 -37
140 -92 134 -98 -2 -2 -29 7 -59 21 -258 118 -591 94 -898 -66 -304 -159 -615
-478 -731 -751 -34 -79 -49 -181 -31 -214 9 -17 4 -26 -38 -62 -79 -68 -134
-198 -160 -377 -17 -120 -12 -433 10 -620 32 -281 21 -254 146 -373 60 -57
117 -108 126 -113 17 -9 18 -1 18 108 l0 117 30 -29 c30 -29 30 -29 30 -146
l0 -117 92 -69 c282 -212 625 -405 938 -527 l115 -45 3 110 c1 60 5 109 7 109
2 0 15 -5 29 -11 25 -12 25 -15 28 -123 l3 -110 105 -33 c350 -111 741 -178
1158 -198 l132 -7 0 96 0 96 30 0 30 0 0 -95 c0 -52 4 -95 9 -95 5 0 89 5 187
11 612 35 1170 181 1687 440 333 167 695 420 927 648 l98 96 16 125 c38 287
48 597 26 755 -26 179 -81 309 -160 377 -39 34 -47 45 -39 59 5 10 9 37 9 62
0 140 -141 378 -350 588 -222 223 -442 357 -697 426 -87 24 -116 27 -253 27
-168 -1 -254 -17 -368 -69 -30 -14 -57 -23 -60 -21 -2 3 36 31 84 62 49 32 91
59 94 62 3 2 -24 30 -58 63 -82 75 -266 170 -286 148 -159 -176 -270 -370
-283 -495 -3 -30 -3 -54 1 -54 4 0 58 15 120 34 477 145 829 124 1123 -67 70
-45 208 -166 199 -174 -3 -3 -112 3 -244 12 -321 23 -642 17 -755 -13 -80 -22
-182 -68 -226 -101 l-24 -18 63 -38 c139 -84 242 -219 299 -390 37 -110 63
-299 59 -428 l-3 -95 -150 140 c-358 335 -620 511 -860 580 -67 19 -104 23
-225 23 -171 0 -245 -17 -405 -94 -219 -105 -416 -257 -779 -600 l-58 -56 6
160 c6 180 27 298 75 421 56 145 164 272 297 350 44 26 45 28 28 42 -43 31
-161 85 -233 104 -108 30 -447 36 -741 14 -297 -22 -275 -26 -210 40 106 107
284 209 435 249 225 58 477 42 804 -51 84 -24 155 -44 157 -44 2 0 4 12 4 28
0 45 -27 133 -65 208 -59 120 -215 324 -248 324 -8 0 -60 -23 -115 -50z"/>
<path d="M2913 5119 c-57 -16 -66 -44 -61 -173 3 -62 8 -119 12 -125 5 -7 52
-11 140 -11 l133 0 7 46 c10 73 7 203 -5 226 -23 42 -140 62 -226 37z"/>
<path d="M103 2614 c9 -122 49 -335 91 -480 192 -663 650 -1194 1311 -1519
260 -128 494 -208 810 -278 l140 -31 515 -4 c568 -4 563 -4 846 63 1197 285
1975 1109 2094 2218 7 60 10 110 8 112 -2 2 -46 -34 -98 -81 -406 -368 -891
-654 -1400 -826 -333 -112 -619 -175 -980 -214 -213 -23 -648 -23 -865 0 -926
100 -1732 452 -2379 1040 l-99 90 6 -90z m3030 -1184 l129 -110 -256 0 c-141
0 -256 2 -256 5 0 6 243 215 250 215 3 0 63 -50 133 -110z"/>
</g>
</svg>
